<?xml version="1.0" encoding="UTF-8"?>
<svg id="Layer_1" data-name="Layer 1" xmlns="http://www.w3.org/2000/svg" version="1.1" viewBox="0 0 338.8 428.7">
  <defs>
    <style>
      .cls-1 {
        fill: #aad037;
      }

      .cls-1, .cls-2, .cls-3, .cls-4, .cls-5 {
        stroke-width: 0px;
      }

      .cls-2 {
        fill: #46a351;
      }

      .cls-3 {
        fill: #cedd42;
      }

      .cls-4 {
        fill: #367359;
      }

      .cls-5 {
        fill: #fff;
      }
    </style>
  </defs>
  <g>
    <polygon class="cls-4" points="293.8 58.2 295 215.4 293.8 215.9 232 186.6 232 87.4 293.8 58.2"/>
    <polygon class="cls-2" points="232 87.4 232 186.6 231.4 186.4 169 214.9 169 59.1 231.4 87.7 232 87.4"/>
    <polygon class="cls-4" points="295 215.4 295 274.1 169 333 169 274 295 215.4"/>
    <polygon class="cls-3" points="44.1 58.2 43 215.4 44.1 215.9 106 186.6 106 87.4 44.1 58.2"/>
    <polygon class="cls-4" points="106 87.4 106 186.6 106.5 186.4 169 214.9 169 59.1 106.5 87.7 106 87.4"/>
    <polygon class="cls-2" points="43 215.4 43 274.1 169 333 169 274 43 215.4"/>
    <polygon class="cls-1" points="106.5 87.7 169 59.1 231.4 87.7 232 87.4 293.8 58.2 169 0 44.1 58.2 106 87.4 106.5 87.7"/>
    <polygon class="cls-1" points="231.8 128.4 170 157.6 169.4 157.9 169 157.7 169 157.9 231.3 186.4 169 214.9 106.5 186.4 106 186.6 44.1 215.9 169 273.9 295 216.9 295 157.9 231.8 128.4"/>
  </g>
  <g>
    <path class="cls-5" d="M40.2,400.7h10.6v21c-5.7,4.2-14.5,7.1-22,7.1-16.4,0-28.9-12.1-28.9-28s12.7-27.9,29.6-27.9,16.2,3.1,21.7,8l-6.9,8.7c-4-3.8-9.6-6.1-14.9-6.1-9.6,0-17,7.5-17,17.2s7.5,17.3,17.1,17.3,7.1-1.2,10.6-3v-14.5Z"/>
    <path class="cls-5" d="M85.4,428v-4.9c-2.8,3.5-7.3,5.4-13.1,5.4-8.9,0-14.3-5.4-14.3-13s5.6-12.5,15.9-12.5h11.4v-.8c0-4.4-2.9-7-8.7-7s-8,1.2-12.4,3.6l-3.7-8.2c6.2-3.1,11.5-4.8,18.8-4.8,11.1,0,17.6,5.6,17.6,14.9v27.2c0,0-11.6,0-11.6,0ZM85.3,413.8v-3.7h-9.4c-4.6,0-6.8,1.4-6.8,4.7s2.5,5.3,6.5,5.3,9-2.7,9.7-6.3Z"/>
    <path class="cls-5" d="M133.1,385.9v11.2c-8.5-.8-13.8,3.8-13.8,10.8v20h-11.9v-41.6h11.9v7.5c2.9-5.1,7.6-7.9,13.8-8Z"/>
    <path class="cls-5" d="M181.1,401.9v26.1h-11.9v-22.7c0-5.3-3.1-8.5-8.2-8.5-6,0-9.5,4.6-9.5,10.7v20.5h-11.9v-41.6h11.9v7.3c2.9-5.2,7.9-7.7,14.4-7.7,9.3,0,15.2,6.2,15.2,15.9Z"/>
    <path class="cls-5" d="M229.7,410.8h-29.9c1.4,5.3,5.4,8.4,10.8,8.4s7.7-1.5,10.5-4.4l6.3,6.3c-4.2,4.6-10.3,7.3-17.8,7.3-13.3,0-21.7-8.5-21.7-21.1s8.7-21.4,21.4-21.4,21.4,9.7,20.4,24.8ZM218.5,403.8c-.2-5.5-3.7-9.1-9.2-9.1s-8.8,3.6-9.7,9.1h19Z"/>
    <path class="cls-5" d="M263.3,425.7c-3.1,1.8-7,2.9-10.8,2.9-7.4,0-13.1-4.3-13.1-12.8v-19.3h-5.8v-8.2h5.8v-11.5h11.8v11.5h11.3v8.3h-11.3v17.2c0,3.5,1.5,4.9,4,4.8,1.5,0,3.4-.5,5.6-1.5l2.5,8.7Z"/>
    <path class="cls-5" d="M279.8,422.5c0,3.6-2.5,6.2-6,6.2s-6-2.6-6-6.2,2.6-6.1,6-6.1,6,2.5,6,6.1Z"/>
    <path class="cls-5" d="M301.2,373.8v22.6h24.5v-22.6h12.2v54.2h-12.2v-21.4h-24.5v21.4h-12.2v-54.2h12.2Z"/>
  </g>
</svg>