<?xml version="1.0" encoding="UTF-8"?>
<svg id="Layer_1" xmlns="http://www.w3.org/2000/svg" version="1.1" viewBox="0 0 499.18 137.08">
  <!-- Generator: Adobe Illustrator 29.6.1, SVG Export Plug-In . SVG Version: 2.1.1 Build 9)  -->
  <defs>
    <style>
      .st0 {
        fill: #4f018b;
      }

      .st1 {
        fill: #f90;
      }
    </style>
  </defs>
  <g>
    <path class="st1" d="M175.11,108.08c-1.6,3.07-4,6.3-7.2,9.7-3.2,3.4-7.07,6.53-11.6,9.4-4.53,2.87-9.63,5.23-15.3,7.1-5.67,1.87-11.7,2.8-18.1,2.8s-12.2-.77-17.8-2.3c-5.6-1.53-10.7-3.6-15.3-6.2-4.6-2.6-8.63-5.7-12.1-9.3-3.47-3.6-6.27-7.4-8.4-11.4h1.6c2.13,3.6,5.1,6.67,8.9,9.2,3.8,2.54,8.03,4.6,12.7,6.2,4.67,1.6,9.63,2.8,14.9,3.6,5.27.8,10.43,1.2,15.5,1.2s10.23-.5,15.5-1.5c5.27-1,10.2-2.37,14.8-4.1,4.6-1.73,8.7-3.83,12.3-6.3,3.6-2.47,6.33-5.17,8.2-8.1h1.4Z"/>
    <path class="st1" d="M165.29,104.41c.66-.56,1.52-1.09,2.58-1.58,1.06-.49,2.25-.85,3.57-1.09,1.32-.24,2.72-.31,4.21-.21,1.49.1,2.97.45,4.46,1.04,1.45.59,2.76,1.32,3.91,2.2,1.16.88,2.14,1.84,2.97,2.87s1.47,2.13,1.94,3.29c.47,1.16.76,2.3.88,3.43l-.37-.15c-.16-1.03-.56-2.02-1.2-2.97-.64-.94-1.43-1.82-2.37-2.63-.93-.81-1.97-1.55-3.12-2.23-1.15-.68-2.31-1.25-3.48-1.73-1.17-.47-2.42-.84-3.73-1.1-1.32-.26-2.59-.41-3.82-.43-1.23-.03-2.38.07-3.44.31-1.07.23-1.95.6-2.66,1.11l-.32-.13Z"/>
    <path class="st1" d="M78.59,104.54c-.71-.51-1.59-.88-2.66-1.11-1.07-.24-2.21-.34-3.44-.31-1.23.03-2.5.17-3.82.43-1.31.26-2.56.63-3.73,1.1-1.17.47-2.33,1.05-3.48,1.73-1.15.68-2.18,1.42-3.12,2.23-.93.81-1.72,1.68-2.37,2.63-.64.94-1.04,1.93-1.2,2.97l-.37.15c.12-1.13.41-2.27.88-3.43.47-1.16,1.11-2.25,1.94-3.29s1.81-1.99,2.97-2.87c1.15-.88,2.46-1.61,3.91-2.2,1.48-.6,2.97-.95,4.46-1.04,1.49-.1,2.89-.03,4.21.21,1.32.24,2.51.61,3.57,1.09,1.06.49,1.92,1.01,2.58,1.58l-.32.13Z"/>
  </g>
  <g>
    <path class="st0" d="M.14,67.58c2.55,6.8,6.59,12.5,12.11,17.08,5.52,4.59,12.11,6.88,19.76,6.88,2.55,0,5.35-.17,8.42-.51,3.06-.34,5.95-1.1,8.67-2.29,2.72-1.19,4.97-2.81,6.76-4.85,1.79-2.04,2.68-4.76,2.68-8.16,0-3.74-1.4-6.84-4.21-9.31-2.81-2.46-6.34-4.63-10.58-6.5-4.25-1.87-8.84-3.61-13.77-5.23-4.93-1.61-9.52-3.57-13.77-5.87-4.25-2.29-7.78-5.1-10.58-8.42s-4.21-7.43-4.21-12.37c0-4.08.8-7.69,2.42-10.84,1.61-3.14,3.78-5.78,6.5-7.9,2.72-2.12,5.87-3.7,9.44-4.72,3.57-1.02,7.22-1.53,10.97-1.53,1.7,0,3.95.17,6.76.51,2.81.34,5.65.81,8.54,1.4,2.89.6,5.69,1.27,8.42,2.04,2.72.76,4.84,1.49,6.38,2.17v16.83c-1.02-3.23-2.59-6.16-4.72-8.8-2.13-2.63-4.59-4.88-7.4-6.76-2.8-1.87-5.82-3.31-9.05-4.33-3.23-1.02-6.46-1.53-9.69-1.53-2.21,0-4.63.34-7.27,1.02-2.64.68-5.06,1.66-7.27,2.93-2.21,1.27-4.04,2.89-5.48,4.85-1.45,1.96-2.17,4.29-2.17,7.01,0,4.42,1.4,7.99,4.21,10.71,2.81,2.72,6.33,5.1,10.58,7.14,4.25,2.04,8.88,3.91,13.9,5.61,5.01,1.7,9.65,3.61,13.9,5.74,4.25,2.13,7.78,4.72,10.58,7.78s4.21,7.06,4.21,11.98c0,4.59-.89,8.46-2.68,11.6-1.78,3.15-4.17,5.74-7.14,7.78-2.98,2.04-6.38,3.49-10.2,4.33-3.82.85-7.69,1.27-11.6,1.27-5.27,0-10.93-.55-16.96-1.66-6.04-1.1-11.52-2.42-16.45-3.95v-21.17Z"/>
    <path class="st0" d="M77.15,48.71c0-6.12,1.19-11.9,3.57-17.34,2.38-5.44,5.61-10.2,9.69-14.28s8.84-7.31,14.28-9.69c5.44-2.38,11.22-3.57,17.34-3.57s11.9,1.19,17.34,3.57c5.44,2.38,10.2,5.61,14.28,9.69,4.08,4.08,7.31,8.84,9.69,14.28,2.38,5.44,3.57,11.22,3.57,17.34s-1.15,11.9-3.44,17.34c-2.29,5.44-5.48,10.2-9.56,14.28s-8.84,7.31-14.28,9.69c-5.44,2.38-11.22,3.57-17.34,3.57s-12.16-1.19-17.6-3.57c-5.44-2.38-10.2-5.61-14.28-9.69s-7.31-8.84-9.69-14.28c-2.38-5.44-3.57-11.22-3.57-17.34ZM118.97,6.38c-5.1,0-9.61,1.19-13.52,3.57-3.91,2.38-7.18,5.4-9.82,9.05-2.64,3.66-4.63,7.82-5.99,12.5-1.36,4.68-2.04,9.31-2.04,13.9,0,5.1.81,10.37,2.42,15.81,1.61,5.44,4.04,10.42,7.27,14.92,3.23,4.51,7.14,8.16,11.73,10.96,4.59,2.81,9.77,4.21,15.55,4.21,5.1,0,9.6-1.19,13.52-3.57,3.91-2.38,7.18-5.4,9.82-9.05,2.63-3.65,4.59-7.82,5.87-12.5,1.27-4.67,1.91-9.31,1.91-13.9,0-5.27-.81-10.62-2.42-16.06-1.62-5.44-4-10.37-7.14-14.79-3.15-4.42-6.97-8.03-11.47-10.84-4.51-2.81-9.73-4.21-15.68-4.21Z"/>
    <path class="st0" d="M176.35,93.33c3.4-1.02,5.69-2.84,6.88-5.48,1.19-2.63,1.79-5.65,1.79-9.05V26.27c0-.85-.09-1.91-.25-3.19-.17-1.27-.43-2.51-.77-3.7-.34-1.19-.89-2.17-1.66-2.93-.76-.77-1.83-1.15-3.19-1.15l16.06-11.22v74.71c0,3.4.55,6.42,1.66,9.05,1.1,2.64,3.35,4.46,6.76,5.48h-27.28ZM199.55,17.34c3.23-3.23,6.63-6.29,10.2-9.18,3.57-2.89,7.82-4.33,12.75-4.33,1.87,0,3.53.51,4.97,1.53,1.44,1.02,2.17,2.47,2.17,4.33,0,2.04-.64,3.57-1.91,4.59s-2.85,1.53-4.72,1.53c-1.53,0-3.15-.51-4.85-1.53-1.7-1.02-3.74-1.53-6.12-1.53-2.21,0-4.38.47-6.5,1.4-2.13.94-4.12,2-5.99,3.19Z"/>
    <path class="st0" d="M240.86,93.33c3.4-1.02,5.69-2.89,6.88-5.61,1.19-2.72,1.79-5.69,1.79-8.93V26.27c0-1.02-.09-2.12-.26-3.31-.17-1.19-.43-2.38-.76-3.57-.34-1.19-.89-2.17-1.66-2.93-.77-.77-1.83-1.15-3.19-1.15l15.81-11.22v74.71c0,2.21.13,4,.38,5.35.26,1.36.72,2.55,1.4,3.57.68,1.02,1.61,1.96,2.8,2.8,1.19.85,2.63,1.79,4.33,2.81h-27.54ZM264.07,19.12c2.55-3.23,5.44-6.03,8.67-8.42,3.23-2.38,6.5-4.37,9.82-5.99,3.32-1.61,6.59-2.81,9.82-3.57,3.23-.76,6.2-1.15,8.92-1.15,2.38,0,4.93.6,7.65,1.79,2.72,1.19,4.08,3.23,4.08,6.12,0,2.38-.76,4.08-2.29,5.1s-3.32,1.53-5.36,1.53-3.66-.38-4.84-1.15c-1.19-.77-2.29-1.57-3.31-2.42-1.02-.85-2.21-1.66-3.57-2.42-1.36-.77-3.32-1.15-5.87-1.15-1.53,0-3.36.34-5.48,1.02-2.13.68-4.3,1.62-6.5,2.81-2.21,1.19-4.38,2.47-6.5,3.82-2.13,1.36-3.87,2.72-5.23,4.08ZM292.37,93.33c3.4-1.19,5.61-3.06,6.63-5.61,1.02-2.55,1.53-5.52,1.53-8.93v-34.68c0-.85-.04-1.91-.13-3.19-.09-1.28-.34-2.51-.77-3.7-.43-1.19-.98-2.17-1.66-2.93-.68-.76-1.7-1.15-3.06-1.15l15.81-11.22v56.86c0,3.23.64,6.21,1.91,8.93,1.28,2.72,3.61,4.59,7.01,5.61h-27.29Z"/>
    <path class="st0" d="M332.41,67.58c2.55,6.8,6.59,12.5,12.11,17.08,5.52,4.59,12.11,6.88,19.76,6.88,2.55,0,5.35-.17,8.42-.51,3.06-.34,5.95-1.1,8.67-2.29,2.72-1.19,4.97-2.81,6.76-4.85,1.78-2.04,2.68-4.76,2.68-8.16,0-3.74-1.4-6.84-4.21-9.31-2.8-2.46-6.33-4.63-10.58-6.5-4.25-1.87-8.84-3.61-13.77-5.23-4.93-1.61-9.52-3.57-13.77-5.87-4.25-2.29-7.78-5.1-10.58-8.42-2.8-3.31-4.21-7.43-4.21-12.37,0-4.08.8-7.69,2.42-10.84,1.61-3.14,3.78-5.78,6.5-7.9,2.72-2.12,5.87-3.7,9.43-4.72,3.57-1.02,7.22-1.53,10.96-1.53,1.7,0,3.95.17,6.76.51,2.8.34,5.65.81,8.54,1.4,2.89.6,5.69,1.27,8.42,2.04,2.72.76,4.85,1.49,6.38,2.17v16.83c-1.02-3.23-2.59-6.16-4.72-8.8-2.13-2.63-4.59-4.88-7.4-6.76-2.8-1.87-5.83-3.31-9.05-4.33-3.23-1.02-6.46-1.53-9.69-1.53-2.21,0-4.63.34-7.27,1.02-2.64.68-5.06,1.66-7.27,2.93-2.21,1.27-4.04,2.89-5.48,4.85-1.45,1.96-2.17,4.29-2.17,7.01,0,4.42,1.4,7.99,4.21,10.71,2.81,2.72,6.33,5.1,10.58,7.14,4.25,2.04,8.88,3.91,13.9,5.61,5.01,1.7,9.65,3.61,13.9,5.74,4.25,2.13,7.78,4.72,10.58,7.78s4.21,7.06,4.21,11.98c0,4.59-.89,8.46-2.68,11.6-1.79,3.15-4.17,5.74-7.14,7.78-2.98,2.04-6.38,3.49-10.2,4.33-3.83.85-7.69,1.27-11.6,1.27-5.27,0-10.93-.55-16.96-1.66-6.04-1.1-11.52-2.42-16.45-3.95v-21.17Z"/>
    <path class="st0" d="M409.42,48.71c0-6.12,1.19-11.9,3.57-17.34,2.38-5.44,5.61-10.2,9.69-14.28s8.84-7.31,14.28-9.69c5.44-2.38,11.22-3.57,17.34-3.57s11.9,1.19,17.34,3.57c5.44,2.38,10.2,5.61,14.28,9.69s7.31,8.84,9.69,14.28c2.38,5.44,3.57,11.22,3.57,17.34s-1.15,11.9-3.44,17.34c-2.29,5.44-5.48,10.2-9.56,14.28s-8.84,7.31-14.28,9.69c-5.44,2.38-11.22,3.57-17.34,3.57s-12.16-1.19-17.59-3.57c-5.44-2.38-10.2-5.61-14.28-9.69s-7.31-8.84-9.69-14.28c-2.38-5.44-3.57-11.22-3.57-17.34ZM451.24,6.38c-5.1,0-9.61,1.19-13.51,3.57-3.91,2.38-7.18,5.4-9.82,9.05-2.64,3.66-4.63,7.82-5.99,12.5-1.36,4.68-2.04,9.31-2.04,13.9,0,5.1.8,10.37,2.42,15.81,1.61,5.44,4.04,10.42,7.27,14.92,3.23,4.51,7.14,8.16,11.73,10.96s9.77,4.21,15.55,4.21c5.1,0,9.6-1.19,13.51-3.57,3.91-2.38,7.18-5.4,9.82-9.05,2.63-3.65,4.59-7.82,5.86-12.5,1.28-4.67,1.91-9.31,1.91-13.9,0-5.27-.81-10.62-2.42-16.06-1.62-5.44-4-10.37-7.14-14.79-3.15-4.42-6.97-8.03-11.48-10.84-4.51-2.81-9.73-4.21-15.68-4.21Z"/>
  </g>
</svg>